# File created by Blade
# Date/Time:  Tue Sep 30 19:36:36 2014
#---------------------------------------------------------
:version 1.10
:name HOM
:units
  mass 1.0
  length 1.000000
  angle deg
:documentation
     Acclaim Skeleton File
:root
   axis xyz
   order TX TY TZ RX RY RZ
   position 0.000000 0.000000 0.000000
   orientation 0 0 0
:bonedata
   begin
      id 1
      name Spine_dum
      direction 0.000000 1.000000 0.000000
      length 3.241213
      axis 0.0 0.0 0.0 xyz
   end
   begin
      id 2
      name LeftUpLeg_dum
      direction 1.000000 0.000000 0.000000
      length 3.434019
      axis 0.0 0.0 0.0 xyz
   end
   begin
      id 3
      name RightUpLeg_dum
      direction -1.000000 0.000000 0.000000
      length 3.434019
      axis 0.0 0.0 0.0 xyz
   end
   begin
      id 4
      name Spine
      direction 0.000000 1.000000 0.000000
      length 0.000000
      axis 0.0 0.0 0.0 xyz
      dof rx ry rz
   end
   begin
      id 5
      name Spine_dum1
      direction 0.000000 1.000000 0.000000
      length 18.382958
      axis 0.0 0.0 0.0 xyz
   end
   begin
      id 6
      name Spine_dum2
      direction 0.000000 1.000000 0.000000
      length 12.828261
      axis 0.0 0.0 0.0 xyz
   end
   begin
      id 7
      name Spine_dum3
      direction 0.000000 1.000000 0.000000
      length 12.828261
      axis 0.0 0.0 0.0 xyz
   end
   begin
      id 8
      name Head
      direction 0.000000 1.000000 0.000000
      length 4.527550
      axis 0.0 0.0 0.0 xyz
      dof rx ry rz
   end
   begin
      id 9
      name LeftShoulder
      direction 1.000000 0.000000 0.000000
      length 7.748055
      axis 0.0 0.0 -90.0 xyz
      dof rx ry rz
   end
   begin
      id 10
      name LeftArm
      direction 1.000000 0.000000 0.000000
      length 10.635614
      axis 0.0 0.0 -90.0 xyz
      dof rx ry rz
   end
   begin
      id 11
      name LeftForeArm
      direction 1.000000 0.000000 0.000000
      length 8.346755
      axis 0.0 0.0 -90.0 xyz
      dof ry rz rx
   end
   begin
      id 12
      name LeftHand
      direction 0.000000 0.000000 0.000000
      length 0.000000
      axis 0.0 0.0 -90.0 xyz
      dof rx ry rz
   end
   begin
      id 13
      name LeftHand_dum1
      direction 0.000000 0.000000 0.000000
      length 0.000000
      axis 0.0 0.0 -90.0 xyz
   end
   begin
      id 14
      name LeftHand_dum2
      direction 1.000000 0.000000 0.000000
      length 3.937000
      axis 0.0 0.0 -90.0 xyz
   end
   begin
      id 15
      name LeftHandThumb1
      direction 0.000000 0.000000 1.000000
      length 3.937000
      axis 0.0 0.0 -90.0 xyz
      dof rx rz ry
   end
   begin
      id 16
      name RightShoulder
      direction -1.000000 0.000000 0.000000
      length 7.748055
      axis 0.0 0.0 90.0 xyz
      dof rx ry rz
   end
   begin
      id 17
      name RightArm
      direction -1.000000 0.000000 0.000000
      length 10.635614
      axis 0.0 0.0 90.0 xyz
      dof rx ry rz
   end
   begin
      id 18
      name RightForeArm
      direction -1.000000 0.000000 0.000000
      length 8.346755
      axis 0.0 0.0 90.0 xyz
      dof ry rz rx
   end
   begin
      id 19
      name RightHand
      direction 0.000000 0.000000 0.000000
      length 0.000000
      axis 0.0 0.0 90.0 xyz
      dof rx ry rz
   end
   begin
      id 20
      name RightHand_dum1
      direction 0.000000 0.000000 0.000000
      length 0.000000
      axis 0.0 0.0 90.0 xyz
   end
   begin
      id 21
      name RightHand_dum2
      direction -1.000000 0.000000 0.000000
      length 3.937000
      axis 0.0 0.0 90.0 xyz
   end
   begin
      id 22
      name RightHandThumb1
      direction 0.000000 0.000000 1.000000
      length 3.937000
      axis 0.0 0.0 90.0 xyz
      dof rx rz ry
   end
   begin
      id 23
      name LeftUpLeg
      direction 0.000000 -1.000000 0.000000
      length 15.713025
      axis 0.0 0.0 0.0 xyz
      dof rx ry rz
   end
   begin
      id 24
      name LeftLeg
      direction 0.000000 -1.000000 0.000000
      length 14.435119
      axis 0.0 0.0 0.0 xyz
      dof rx ry rz
   end
   begin
      id 25
      name LeftFoot
      direction 0.000000 -0.258819 0.965926
      length 4.938895
      axis 15.0 0.0 0.0 xyz
      dof rx ry rz
   end
   begin
      id 26
      name LeftToeBase
      direction 0.000000 0.000000 1.000000
      length 2.952750
      axis 0.0 0.0 0.0 xyz
      dof rx ry rz
   end
   begin
      id 27
      name RightUpLeg
      direction 0.000000 -1.000000 0.000000
      length 15.713025
      axis 0.0 0.0 0.0 xyz
      dof rx ry rz
   end
   begin
      id 28
      name RightLeg
      direction 0.000000 -1.000000 0.000000
      length 14.435119
      axis 0.0 0.0 0.0 xyz
      dof rx ry rz
   end
   begin
      id 29
      name RightFoot
      direction 0.000000 -0.258819 0.965926
      length 4.938895
      axis 15.0 0.0 0.0 xyz
      dof rx ry rz
   end
   begin
      id 30
      name RightToeBase
      direction 0.000000 0.000000 1.000000
      length 2.952750
      axis 0.0 0.0 0.0 xyz
      dof rx ry rz
   end
:hierarchy
   begin
      root Spine_dum LeftUpLeg_dum RightUpLeg_dum
      Spine_dum Spine
      LeftUpLeg_dum LeftUpLeg
      RightUpLeg_dum RightUpLeg
      Spine Spine_dum1 Spine_dum2 Spine_dum3
      Spine_dum1 Head
      Spine_dum2 LeftShoulder
      Spine_dum3 RightShoulder
      LeftShoulder LeftArm
      LeftArm LeftForeArm
      LeftForeArm LeftHand
      LeftHand LeftHand_dum1 LeftHand_dum2
      LeftHand_dum1 LeftHandThumb1
      RightShoulder RightArm
      RightArm RightForeArm
      RightForeArm RightHand
      RightHand RightHand_dum1 RightHand_dum2
      RightHand_dum1 RightHandThumb1
      LeftUpLeg LeftLeg
      LeftLeg LeftFoot
      LeftFoot LeftToeBase
      RightUpLeg RightLeg
      RightLeg RightFoot
      RightFoot RightToeBase
   end

# File created by Blade
# Date/Time:  Tue Sep 23 19:22:32 2014
# Frame Rate: 120.000 fps
#------------------------------------------------------
:FULLY-SPECIFIED
:DEGREES
1
root -3.684915 32.260187 1.983540 34.146530 4.614706 -1.207841
Spine -37.840674 -6.092211 6.534116
Head 7.704561 -0.759402 -5.762503
LeftShoulder -19.089384 45.193526 20.491793
LeftArm 54.079345 -37.869986 -75.727290
LeftForeArm 23.060389 -0.000000 -8.672837
LeftHand 50.043166 -0.000000 18.659811
LeftHandThumb1 -26.253704 0.000000 33.147579
RightShoulder -16.402786 -39.979433 -25.342862
RightArm 50.663349 24.529173 52.545978
RightForeArm 20.239598 -0.000000 -6.560301
RightHand 14.841229 -0.000000 7.495581
RightHandThumb1 -24.326973 -0.000000 -32.862282
LeftUpLeg -30.559082 9.154968 3.346451
LeftLeg -0.192852 -0.000000 0.000000
LeftFoot -4.861673 -1.088105 -4.719203
LeftToeBase 4.171771 -0.000000 -0.000000
RightUpLeg -27.375003 -7.236788 4.049151
RightLeg -4.567119 -0.000000 0.000000
RightFoot -6.066133 -4.822352 7.313599
RightToeBase 11.725239 -0.000000 -0.000000
2
root -3.690009 32.261320 1.977784 34.156374 4.588495 -1.199805
Spine -37.827022 -6.079557 6.517677
Head 7.647057 -0.802585 -5.750524
LeftShoulder -19.071824 45.171019 20.505134
LeftArm 54.109811 -37.948398 -75.917300
LeftForeArm 22.998393 -0.000000 -8.470477
LeftHand 50.063089 -0.000000 18.544422
LeftHandThumb1 -26.253704 0.000000 33.147579
RightShoulder -16.405368 -39.974187 -25.357230
RightArm 50.689716 24.518325 52.514663
RightForeArm 20.215476 -0.000000 -6.553103
RightHand 14.847659 0.000000 7.430754
RightHandThumb1 -24.326973 -0.000000 -32.862282
LeftUpLeg -30.608425 9.085718 3.380807
LeftLeg -0.110274 -0.000000 0.000000
LeftFoot -4.891548 -0.973590 -4.697396
LeftToeBase 4.138993 -0.000000 -0.000000
RightUpLeg -27.386444 -7.229254 4.044717
RightLeg -4.592702 -0.000000 0.000000
RightFoot -6.063491 -4.773253 7.356286
RightToeBase 11.803821 -0.000000 -0.000000
3
root -3.694666 32.262776 1.972879 34.155502 4.546434 -1.191515
Spine -37.803610 -6.059185 6.487000
Head 7.598358 -0.821020 -5.715810
LeftShoulder -19.052599 45.147702 20.502272
LeftArm 54.100307 -37.974350 -75.989719
LeftForeArm 22.583057 -0.000000 -8.323869
LeftHand 50.301438 0.000000 18.338320
LeftHandThumb1 -26.253704 0.000000 33.147579
RightShoulder -16.377738 -39.945730 -25.378224
RightArm 50.669092 24.510055 52.467786
RightForeArm 20.189530 -0.000000 -6.544306
RightHand 14.887071 -0.000000 7.489581
RightHandThumb1 -24.326973 -0.000000 -32.862282
LeftUpLeg -30.627210 8.983394 3.438778
LeftLeg -0.046545 -0.000000 0.000000
LeftFoot -4.946810 -0.827680 -4.797301
LeftToeBase 4.245469 -0.000000 -0.000000
RightUpLeg -27.386171 -7.238164 4.046022
RightLeg -4.621139 -0.000000 0.000000
RightFoot -6.027751 -4.710908 7.372264
RightToeBase 11.809744 -0.000000 -0.000000
4
root -3.698223 32.263479 1.969943 34.113704 4.494049 -1.161094
Spine -37.737169 -6.054769 6.429702
Head 7.539981 -0.814427 -5.687245
LeftShoulder -19.018181 45.098242 20.525369
LeftArm 54.052316 -38.040017 -76.106118
LeftForeArm 22.538195 -0.000000 -8.124406
LeftHand 50.308955 0.000000 18.263844
LeftHandThumb1 -26.253704 0.000000 33.147579
RightShoulder -16.348805 -39.935777 -25.400822
RightArm 50.686013 24.533410 52.481786
RightForeArm 20.134187 -0.000000 -6.521616
RightHand 14.844280 -0.000000 7.430027
RightHandThumb1 -24.326973 -0.000000 -32.862282
LeftUpLeg -30.605228 8.894749 3.463226
LeftLeg 0.024209 -0.000000 -0.000000
LeftFoot -4.989012 -0.686183 -4.861375
LeftToeBase 4.256491 -0.000000 -0.000000
RightUpLeg -27.337974 -7.223879 4.000793
RightLeg -4.645269 -0.000000 0.000000
RightFoot -5.996239 -4.742262 7.285199
RightToeBase 11.718559 -0.000000 -0.000000
5
root -3.701413 32.265124 1.964764 34.117197 4.476024 -1.143464
Spine -37.722795 -6.055426 6.408244
Head 7.500811 -0.838239 -5.654413
LeftShoulder -19.000280 45.113434 20.511125
LeftArm 54.040233 -38.056638 -76.188917
LeftForeArm 22.105266 0.000000 -7.924637
LeftHand 50.553799 -0.000000 17.809312
LeftHandThumb1 -26.253704 0.000000 33.147579
RightShoulder -16.370979 -39.948308 -25.369740
RightArm 50.727175 24.503410 52.366101
RightForeArm 20.164096 -0.000000 -6.553776
RightHand 14.812194 0.000000 7.490324
RightHandThumb1 -24.326973 -0.000000 -32.862282
LeftUpLeg -30.604202 8.655675 3.592189
LeftLeg 0.054404 -0.000000 -0.000000
LeftFoot -5.038345 -0.415541 -5.005563
LeftToeBase 4.333831 -0.000000 -0.000000
RightUpLeg -27.332763 -7.298125 4.028143
RightLeg -4.701530 -0.000000 0.000000
RightFoot -5.966609 -4.609846 7.337215
RightToeBase 11.830698 -0.000000 -0.000000
